<svg id="eonWqFR5Yjg1" xmlns="http://www.w3.org/2000/svg" xmlns:xlink="http://www.w3.org/1999/xlink" viewBox="0 0 510 510" shape-rendering="geometricPrecision" text-rendering="geometricPrecision"><g transform="translate(23.000001 44.000001)"><ellipse rx="183.069351" ry="183.069351" transform="matrix(1.383278 0 0 1.383278 232.103614 211.1035)" fill="#fff" stroke-width="0"/><path d="M298.427,117.237v-98.079c0-4.418,3.582-8,8-8s8,3.582,8,8v98.079c0,4.418-3.582,8-8,8s-8-3.582-8-8Zm-22.13,8c4.418,0,8-3.582,8-8v-98.079c0-4.418-3.582-8-8-8s-8,3.582-8,8v98.079c0,4.418,3.582,8,8,8ZM115.064,199.946c0-4.418-3.582-8-8-8h-99.064c-3.236,0-6.153,1.949-7.391,4.938s-.554,6.43,1.734,8.718L83.96,287.22c1.562,1.562,3.609,2.343,5.657,2.343s4.095-.781,5.657-2.343c3.125-3.124,3.125-8.189,0-11.313l-67.96-67.96h79.75c4.418-.001,8-3.582,8-8.001Zm47.804,51.862v133.844c0,14.004-11.394,25.397-25.398,25.397-14.003,0-25.396-11.393-25.396-25.397v-133.844c0-11.209,7.3-20.747,17.396-24.106v-65.584c-30.365-4.819-53.897-36.69-53.897-75.165c0-41.794,27.767-75.795,61.897-75.795c34.131,0,61.898,34.001,61.898,75.795c0,38.475-23.532,70.346-53.898,75.165v65.584c10.098,3.358,17.398,12.895,17.398,24.106ZM137.47,146.748c25.308,0,45.898-26.824,45.898-59.795s-20.59-59.795-45.898-59.795-45.897,26.824-45.897,59.795s20.589,59.795,45.897,59.795Zm9.398,105.06c0-5.181-4.216-9.396-9.398-9.396-5.181,0-9.396,4.215-9.396,9.396v133.844c0,5.182,4.215,9.397,9.396,9.397c5.182,0,9.398-4.216,9.398-9.397v-133.844Zm274.73-54.923c-1.238-2.989-4.155-4.938-7.391-4.938h-97.19c-4.418,0-8,3.582-8,8s3.582,8,8,8h77.877l-64.682,64.681c-3.124,3.124-3.124,8.189,0,11.313c1.563,1.562,3.61,2.343,5.657,2.343c2.048,0,4.095-.781,5.657-2.343l78.338-78.338c2.289-2.288,2.972-5.729,1.734-8.718ZM316.76,251.808v133.844c0,14.004-11.394,25.397-25.398,25.397s-25.396-11.393-25.396-25.397v-133.844c0-11.209,7.301-20.747,17.396-24.106v-65.553c-25.552-3.869-45.196-25.981-45.196-52.596v-90.395c0-4.418,3.582-8,8-8s8,3.582,8,8v90.395c0,20.471,16.624,37.133,37.081,37.196.076-.001.154-.001.23,0c20.457-.063,37.082-16.725,37.082-37.196v-90.395c0-4.418,3.582-8,8-8s8,3.582,8,8v90.395c0,26.615-19.645,48.727-45.197,52.596v65.553c10.097,3.358,17.398,12.895,17.398,24.106Zm-16,0c0-5.181-4.216-9.396-9.398-9.396s-9.396,4.215-9.396,9.396v133.844c0,5.182,4.215,9.397,9.396,9.397c5.183,0,9.398-4.216,9.398-9.397v-133.844ZM242.429,360.409l-31.325,31.327-23.331-23.331c-3.124-3.124-8.189-3.124-11.314,0-3.124,3.124-3.124,8.189,0,11.313l28.988,28.987c1.5,1.5,3.535,2.343,5.657,2.343s4.156-.843,5.657-2.343l36.981-36.983c3.124-3.125,3.124-8.189-.001-11.314-3.123-3.124-8.188-3.122-11.312.001Zm27.327-160.461c0-4.418-3.582-8-8-8h-93.746c-4.418,0-8,3.582-8,8s3.582,8,8,8h93.747c4.417,0,7.999-3.581,7.999-8Z" transform="translate(13 0)"/></g></svg>